<?xml version="1.0" standalone="no"?>
<!DOCTYPE svg PUBLIC "-//W3C//DTD SVG 20010904//EN"
 "http://www.w3.org/TR/2001/REC-SVG-20010904/DTD/svg10.dtd">
<svg version="1.0" xmlns="http://www.w3.org/2000/svg"
 width="300.000000pt" height="227.000000pt" viewBox="0 0 300.000000 227.000000"
 preserveAspectRatio="xMidYMid meet">
<metadata>
Created by potrace 1.10, written by Peter Selinger 2001-2011
</metadata>
<g transform="translate(0.000000,227.000000) scale(0.100000,-0.100000)"
fill="#000000" stroke="none">
<path d="M540 1301 c-25 -16 -53 -43 -63 -60 -21 -36 -16 -39 21 -12 15 10 42
26 60 35 l34 17 64 -40 c36 -23 67 -41 70 -41 2 0 4 10 4 23 0 16 -10 28 -32
40 -18 8 -51 27 -73 41 l-41 25 -44 -28z"/>
<path d="M620 1326 c0 -3 27 -19 60 -37 l60 -32 0 -79 c0 -69 2 -79 16 -74 9
3 18 6 20 6 2 0 4 38 4 84 l0 84 -44 26 c-38 22 -116 37 -116 22z"/>
<path d="M1865 1230 c-15 -33 -16 -42 -5 -55 10 -11 10 -19 2 -27 -14 -14 -42
-3 -42 17 0 9 5 13 10 10 15 -10 12 4 -12 46 -24 43 -26 44 -51 25 -17 -13
-16 -17 17 -70 30 -45 36 -64 36 -109 0 -50 2 -53 23 -51 12 1 26 3 31 3 5 1
6 23 2 51 -6 43 -3 57 24 110 25 49 29 65 19 76 -19 23 -35 16 -54 -26z"/>
<path d="M513 1221 l-62 -36 0 -50 c0 -30 7 -64 19 -85 l19 -35 1 75 0 75 72
38 c52 29 67 41 57 48 -22 14 -40 9 -106 -30z"/>
<path d="M1056 1250 c-58 -18 -106 -85 -106 -150 0 -47 49 -92 95 -88 24 2 39
-3 45 -12 7 -10 10 -11 10 -2 0 6 9 12 21 12 15 0 19 5 15 15 -3 9 3 30 14 48
38 61 18 167 -31 167 -10 0 -19 5 -19 10 0 11 -4 11 -44 0z m54 -65 c7 -8 10
-30 8 -49 -3 -28 -1 -33 9 -24 20 16 16 -12 -7 -49 -21 -35 -27 -38 -49 -24
-12 8 -12 12 -2 25 8 9 10 16 5 16 -5 0 -1 7 10 15 20 15 16 47 -6 43 -24 -6
-36 -23 -27 -40 20 -38 0 -51 -33 -21 -26 24 -22 60 11 94 32 32 62 37 81 14z"/>
<path d="M1206 1251 c-3 -4 -6 -55 -7 -114 -3 -126 2 -136 58 -119 20 6 40 8
43 4 3 -5 15 -8 28 -8 22 0 22 3 22 121 l0 121 -26 -1 -27 -2 2 -86 c1 -52 -2
-87 -8 -87 -5 0 -16 -3 -25 -6 -14 -5 -16 6 -16 84 0 81 -2 90 -20 95 -11 3
-22 2 -24 -2z"/>
<path d="M1444 1253 l-62 -4 5 -107 c7 -135 12 -142 93 -129 57 9 60 11 60 39
0 23 -4 28 -17 24 -66 -18 -83 -18 -83 2 0 16 9 22 40 27 35 6 39 10 38 32 -2
23 -5 24 -40 19 -35 -6 -38 -5 -38 19 0 23 4 25 43 25 40 0 43 2 42 27 0 30 0
30 -81 26z m-2 -139 c-22 -16 -36 -3 -27 26 6 20 8 21 26 4 18 -16 18 -18 1
-30z"/>
<path d="M1573 1252 c-13 -8 -14 -52 -1 -52 4 0 8 -42 8 -93 0 -91 0 -93 24
-95 21 -1 25 3 28 30 4 45 23 45 41 -1 13 -32 20 -38 37 -34 31 8 33 19 10 63
l-21 40 21 22 c29 32 26 81 -6 107 -27 22 -115 30 -141 13z m107 -57 c14 -17
2 -38 -32 -56 -16 -9 -18 -5 -18 31 0 32 4 40 19 40 10 0 24 -7 31 -15z m-16
-69 c23 5 26 3 26 -20 0 -23 -3 -25 -30 -20 -22 5 -31 2 -36 -10 -10 -27 -24
-7 -24 36 0 40 1 40 19 24 13 -12 27 -15 45 -10z"/>
<path d="M1964 1253 c-16 -3 -20 -10 -16 -29 2 -13 8 -24 13 -24 5 0 9 -34 9
-76 0 -91 10 -114 50 -114 91 0 151 79 99 131 -13 13 -17 24 -11 32 38 50 7
88 -70 86 -29 -1 -62 -4 -74 -6z m60 -93 c12 0 26 3 30 7 12 13 36 11 36 -2 0
-7 -19 -19 -42 -27 -38 -11 -44 -17 -49 -48 -4 -22 -6 -6 -6 45 0 44 2 68 4
53 3 -21 10 -28 27 -28z m46 44 c0 -8 -32 -33 -42 -34 -5 0 -8 9 -8 20 0 15 7
20 25 20 14 0 25 -3 25 -6z m16 -95 c8 -13 -13 -34 -43 -44 -20 -6 -23 -3 -23
24 0 28 3 31 29 31 17 0 33 -5 37 -11z"/>
<path d="M2256 1250 c-40 -13 -73 -46 -92 -96 -39 -101 52 -180 143 -124 47
28 67 65 67 121 0 37 -6 54 -23 73 -13 14 -29 22 -37 19 -8 -3 -14 0 -14 6 0
13 -4 13 -44 1z m52 -62 c19 -19 14 -65 -10 -92 -49 -54 -112 -25 -87 41 18
50 70 78 97 51z"/>
<path d="M2463 1252 c-71 -3 -72 -3 -69 -30 1 -21 7 -27 24 -26 21 1 22 -3 22
-91 0 -97 1 -99 50 -86 3 0 4 41 2 91 l-3 90 29 0 c26 0 30 3 27 25 -1 14 -4
27 -6 28 -2 1 -36 1 -76 -1z m23 -44 c-9 -12 -16 -32 -17 -43 -1 -17 -2 -16
-8 5 -8 28 6 60 27 60 10 0 10 -5 -2 -22z"/>
<path d="M790 1178 l0 -73 -67 -39 c-61 -35 -65 -40 -46 -49 16 -7 35 -1 87
28 l66 37 0 54 c0 47 -21 114 -35 114 -3 0 -5 -33 -5 -72z"/>
<path d="M524 1162 c-7 -4 -13 -42 -15 -88 l-4 -82 46 -26 c29 -16 62 -26 85
-26 l39 1 -68 37 -69 37 5 78 c5 76 3 84 -19 69z"/>
<path d="M560 1048 c0 -18 15 -32 69 -64 l69 -41 45 26 c28 15 52 38 61 59
l16 33 -42 -26 c-79 -48 -84 -49 -115 -28 -15 11 -45 30 -65 42 l-38 23 0 -24z"/>
</g>
</svg>
